<svg xmlns="http://www.w3.org/2000/svg" viewBox="0 0 60 29" fill="#2B1202"><path d="M57.218 0a2.782 2.782 0 012.77 3.06l-.048.3-4.64 21.865a4.435 4.435 0 01-4.339 3.514 4.534 4.534 0 01-4.308-3.12l-.105-.377-3.028-12.885-2.966 12.891a4.5 4.5 0 01-4.386 3.491 4.426 4.426 0 01-4.23-3.128l-.099-.376-1.836-8.62-1.825 8.61a4.435 4.435 0 01-3.95 3.497l-.388.017a4.534 4.534 0 01-4.309-3.12l-.105-.377-3.028-12.885-2.966 12.891a4.5 4.5 0 01-4.386 3.491 4.426 4.426 0 01-4.23-3.128l-.098-.376L.061 3.37A2.788 2.788 0 012.788 0c1.87 0 3.49 1.254 3.981 3.027l.083.362 2.68 14.633 3.317-15.148A3.655 3.655 0 0116.42.001a3.667 3.667 0 013.482 2.519l.096.352 3.37 15.15 2.677-14.643a4.12 4.12 0 012.99-3.24c.184-.059.377-.1.575-.122l.488-.016c.194 0 .387.02.577.06l.267.07a4.13 4.13 0 012.941 2.862l.093.396 2.677 14.633L39.97 2.874A3.655 3.655 0 0143.54.001a3.667 3.667 0 013.483 2.519l.096.352 3.37 15.15 2.677-14.643A4.12 4.12 0 0157.218.001V0z"/></svg>